<mxfile host="Electron" modified="2023-04-19T05:46:29.964Z" agent="Mozilla/5.0 (Windows NT 10.0; Win64; x64) AppleWebKit/537.36 (KHTML, like Gecko) draw.io/21.1.2 Chrome/106.0.5249.199 Electron/21.4.3 Safari/537.36" etag="C1ysHf7dk0o3hrYEHvyJ" version="21.1.2" type="device">
  <diagram name="Page-1" id="74e2e168-ea6b-b213-b513-2b3c1d86103e">
    <mxGraphModel dx="1674" dy="836" grid="0" gridSize="10" guides="0" tooltips="1" connect="1" arrows="1" fold="1" page="1" pageScale="1" pageWidth="1100" pageHeight="850" background="none" math="0" shadow="0">
      <root>
        <mxCell id="0" />
        <mxCell id="1" parent="0" />
        <mxCell id="77e6c97f196da883-1" value="&amp;nbsp; &amp;nbsp; &amp;nbsp;Repack Flow" style="swimlane;html=1;childLayout=stackLayout;startSize=20;rounded=0;shadow=0;labelBackgroundColor=none;strokeWidth=1;fontFamily=Verdana;fontSize=12;align=left;" parent="1" vertex="1">
          <mxGeometry x="70" y="40" width="1638" height="490" as="geometry" />
        </mxCell>
        <mxCell id="77e6c97f196da883-2" value="Planner" style="swimlane;html=1;startSize=20;" parent="77e6c97f196da883-1" vertex="1">
          <mxGeometry y="20" width="160" height="470" as="geometry" />
        </mxCell>
        <mxCell id="77e6c97f196da883-8" value="Create&lt;br style=&quot;font-size: 12px;&quot;&gt;request and save" style="rounded=1;whiteSpace=wrap;html=1;shadow=0;labelBackgroundColor=none;strokeWidth=1;fontFamily=Verdana;fontSize=12;align=center;" parent="77e6c97f196da883-2" vertex="1">
          <mxGeometry x="20" y="65" width="100" height="60" as="geometry" />
        </mxCell>
        <mxCell id="QPGYUxcQ977ERs3qzV96-6" value="request ID status :New" style="shape=document;whiteSpace=wrap;html=1;boundedLbl=1;fontSize=12;" parent="77e6c97f196da883-2" vertex="1">
          <mxGeometry x="20" y="170" width="100" height="40" as="geometry" />
        </mxCell>
        <mxCell id="QPGYUxcQ977ERs3qzV96-8" value="" style="endArrow=none;dashed=1;html=1;dashPattern=1 3;strokeWidth=2;rounded=0;entryX=0.5;entryY=0;entryDx=0;entryDy=0;exitX=0.5;exitY=1;exitDx=0;exitDy=0;fontSize=12;" parent="77e6c97f196da883-2" source="77e6c97f196da883-8" target="QPGYUxcQ977ERs3qzV96-6" edge="1">
          <mxGeometry width="50" height="50" relative="1" as="geometry">
            <mxPoint x="430" y="-10" as="sourcePoint" />
            <mxPoint x="480" y="-60" as="targetPoint" />
          </mxGeometry>
        </mxCell>
        <mxCell id="77e6c97f196da883-26" style="edgeStyle=orthogonalEdgeStyle;rounded=1;html=1;labelBackgroundColor=none;startArrow=none;startFill=0;startSize=5;endArrow=classicThin;endFill=1;endSize=5;jettySize=auto;orthogonalLoop=1;strokeWidth=1;fontFamily=Verdana;fontSize=12;" parent="77e6c97f196da883-1" source="77e6c97f196da883-8" target="77e6c97f196da883-11" edge="1">
          <mxGeometry relative="1" as="geometry" />
        </mxCell>
        <mxCell id="77e6c97f196da883-3" value="WH" style="swimlane;html=1;startSize=20;" parent="77e6c97f196da883-1" vertex="1">
          <mxGeometry x="160" y="20" width="330" height="470" as="geometry" />
        </mxCell>
        <mxCell id="77e6c97f196da883-11" value="Create&lt;br style=&quot;font-size: 12px;&quot;&gt;work order by request ID" style="rounded=1;whiteSpace=wrap;html=1;shadow=0;labelBackgroundColor=none;strokeWidth=1;fontFamily=Verdana;fontSize=12;align=center;" parent="77e6c97f196da883-3" vertex="1">
          <mxGeometry x="52" y="65" width="100" height="60" as="geometry" />
        </mxCell>
        <mxCell id="QPGYUxcQ977ERs3qzV96-9" value="request ID status :WO Partically Created/Complete" style="shape=document;whiteSpace=wrap;html=1;boundedLbl=1;fontSize=12;" parent="77e6c97f196da883-3" vertex="1">
          <mxGeometry x="140" y="190" width="108" height="60" as="geometry" />
        </mxCell>
        <mxCell id="QPGYUxcQ977ERs3qzV96-10" value="" style="endArrow=none;dashed=1;html=1;dashPattern=1 3;strokeWidth=2;rounded=0;entryX=0;entryY=0.5;entryDx=0;entryDy=0;exitX=0.5;exitY=1;exitDx=0;exitDy=0;fontSize=12;" parent="77e6c97f196da883-3" source="77e6c97f196da883-11" target="QPGYUxcQ977ERs3qzV96-9" edge="1">
          <mxGeometry width="50" height="50" relative="1" as="geometry">
            <mxPoint x="-80" y="135" as="sourcePoint" />
            <mxPoint x="-80" y="180" as="targetPoint" />
            <Array as="points">
              <mxPoint x="100" y="220" />
            </Array>
          </mxGeometry>
        </mxCell>
        <mxCell id="QPGYUxcQ977ERs3qzV96-12" value="Repack status :New" style="shape=document;whiteSpace=wrap;html=1;boundedLbl=1;fontSize=12;" parent="77e6c97f196da883-3" vertex="1">
          <mxGeometry x="140" y="305" width="108" height="60" as="geometry" />
        </mxCell>
        <mxCell id="QPGYUxcQ977ERs3qzV96-13" value="" style="endArrow=none;dashed=1;html=1;dashPattern=1 3;strokeWidth=2;rounded=0;entryX=0;entryY=0.25;entryDx=0;entryDy=0;exitX=0.5;exitY=1;exitDx=0;exitDy=0;fontSize=12;" parent="77e6c97f196da883-3" source="77e6c97f196da883-11" target="QPGYUxcQ977ERs3qzV96-12" edge="1">
          <mxGeometry width="50" height="50" relative="1" as="geometry">
            <mxPoint x="112" y="135" as="sourcePoint" />
            <mxPoint x="116" y="180" as="targetPoint" />
            <Array as="points">
              <mxPoint x="100" y="320" />
            </Array>
          </mxGeometry>
        </mxCell>
        <mxCell id="77e6c97f196da883-4" value="Packing_OP" style="swimlane;html=1;startSize=20;" parent="77e6c97f196da883-1" vertex="1">
          <mxGeometry x="490" y="20" width="460" height="470" as="geometry" />
        </mxCell>
        <mxCell id="QPGYUxcQ977ERs3qzV96-19" value="Change label..." style="edgeStyle=orthogonalEdgeStyle;rounded=0;orthogonalLoop=1;jettySize=auto;html=1;entryX=0;entryY=0.5;entryDx=0;entryDy=0;fontSize=12;" parent="77e6c97f196da883-4" source="QPGYUxcQ977ERs3qzV96-1" target="QPGYUxcQ977ERs3qzV96-16" edge="1">
          <mxGeometry x="0.24" y="15" relative="1" as="geometry">
            <mxPoint as="offset" />
          </mxGeometry>
        </mxCell>
        <mxCell id="QPGYUxcQ977ERs3qzV96-1" value="Material&lt;br style=&quot;font-size: 12px;&quot;&gt;receive" style="rounded=1;whiteSpace=wrap;html=1;shadow=0;labelBackgroundColor=none;strokeWidth=1;fontFamily=Verdana;fontSize=12;align=center;" parent="77e6c97f196da883-4" vertex="1">
          <mxGeometry x="28" y="65" width="100" height="60" as="geometry" />
        </mxCell>
        <mxCell id="QPGYUxcQ977ERs3qzV96-14" value="Repack status :Received" style="shape=document;whiteSpace=wrap;html=1;boundedLbl=1;fontSize=12;" parent="77e6c97f196da883-4" vertex="1">
          <mxGeometry x="108" y="302" width="108" height="60" as="geometry" />
        </mxCell>
        <mxCell id="QPGYUxcQ977ERs3qzV96-15" value="" style="endArrow=none;dashed=1;html=1;dashPattern=1 3;strokeWidth=2;rounded=0;exitX=0.5;exitY=1;exitDx=0;exitDy=0;fontSize=12;" parent="77e6c97f196da883-4" source="QPGYUxcQ977ERs3qzV96-1" target="QPGYUxcQ977ERs3qzV96-14" edge="1">
          <mxGeometry width="50" height="50" relative="1" as="geometry">
            <mxPoint x="-210" y="135" as="sourcePoint" />
            <mxPoint x="-172" y="330" as="targetPoint" />
            <Array as="points">
              <mxPoint x="78" y="329" />
            </Array>
          </mxGeometry>
        </mxCell>
        <mxCell id="QPGYUxcQ977ERs3qzV96-16" value="Packing" style="rounded=1;whiteSpace=wrap;html=1;shadow=0;labelBackgroundColor=none;strokeWidth=1;fontFamily=Verdana;fontSize=12;align=center;" parent="77e6c97f196da883-4" vertex="1">
          <mxGeometry x="237" y="65" width="100" height="60" as="geometry" />
        </mxCell>
        <mxCell id="QPGYUxcQ977ERs3qzV96-17" value="Repack status :Packing Done" style="shape=document;whiteSpace=wrap;html=1;boundedLbl=1;fontSize=12;" parent="77e6c97f196da883-4" vertex="1">
          <mxGeometry x="312" y="302" width="108" height="60" as="geometry" />
        </mxCell>
        <mxCell id="QPGYUxcQ977ERs3qzV96-18" value="" style="endArrow=none;dashed=1;html=1;dashPattern=1 3;strokeWidth=2;rounded=0;exitX=0.5;exitY=1;exitDx=0;exitDy=0;fontSize=12;" parent="77e6c97f196da883-4" target="QPGYUxcQ977ERs3qzV96-17" edge="1">
          <mxGeometry width="50" height="50" relative="1" as="geometry">
            <mxPoint x="282" y="125" as="sourcePoint" />
            <mxPoint x="32" y="330" as="targetPoint" />
            <Array as="points">
              <mxPoint x="282" y="329" />
            </Array>
          </mxGeometry>
        </mxCell>
        <mxCell id="77e6c97f196da883-5" value="QA" style="swimlane;html=1;startSize=20;" parent="77e6c97f196da883-1" vertex="1">
          <mxGeometry x="950" y="20" width="430" height="470" as="geometry" />
        </mxCell>
        <mxCell id="QPGYUxcQ977ERs3qzV96-27" style="edgeStyle=orthogonalEdgeStyle;rounded=0;orthogonalLoop=1;jettySize=auto;html=1;entryX=0;entryY=0.5;entryDx=0;entryDy=0;fontSize=12;" parent="77e6c97f196da883-5" source="QPGYUxcQ977ERs3qzV96-20" target="QPGYUxcQ977ERs3qzV96-24" edge="1">
          <mxGeometry relative="1" as="geometry" />
        </mxCell>
        <mxCell id="QPGYUxcQ977ERs3qzV96-20" value="Label Check" style="rounded=1;whiteSpace=wrap;html=1;shadow=0;labelBackgroundColor=none;strokeWidth=1;fontFamily=Verdana;fontSize=12;align=center;" parent="77e6c97f196da883-5" vertex="1">
          <mxGeometry x="57" y="65" width="100" height="60" as="geometry" />
        </mxCell>
        <mxCell id="QPGYUxcQ977ERs3qzV96-22" value="Repack status :PQA Confirm" style="shape=document;whiteSpace=wrap;html=1;boundedLbl=1;fontSize=12;" parent="77e6c97f196da883-5" vertex="1">
          <mxGeometry x="130" y="305" width="108" height="60" as="geometry" />
        </mxCell>
        <mxCell id="QPGYUxcQ977ERs3qzV96-23" value="" style="endArrow=none;dashed=1;html=1;dashPattern=1 3;strokeWidth=2;rounded=0;exitX=0.5;exitY=1;exitDx=0;exitDy=0;fontSize=12;" parent="77e6c97f196da883-5" target="QPGYUxcQ977ERs3qzV96-22" edge="1">
          <mxGeometry width="50" height="50" relative="1" as="geometry">
            <mxPoint x="100" y="128" as="sourcePoint" />
            <mxPoint x="-150" y="333" as="targetPoint" />
            <Array as="points">
              <mxPoint x="100" y="332" />
            </Array>
          </mxGeometry>
        </mxCell>
        <mxCell id="QPGYUxcQ977ERs3qzV96-24" value="Final result" style="rounded=1;whiteSpace=wrap;html=1;shadow=0;labelBackgroundColor=none;strokeWidth=1;fontFamily=Verdana;fontSize=12;align=center;" parent="77e6c97f196da883-5" vertex="1">
          <mxGeometry x="212" y="65" width="100" height="60" as="geometry" />
        </mxCell>
        <mxCell id="QPGYUxcQ977ERs3qzV96-25" value="Repack status :PQA Done/PQA Reject" style="shape=document;whiteSpace=wrap;html=1;boundedLbl=1;fontSize=12;" parent="77e6c97f196da883-5" vertex="1">
          <mxGeometry x="280" y="305" width="108" height="60" as="geometry" />
        </mxCell>
        <mxCell id="QPGYUxcQ977ERs3qzV96-26" value="" style="endArrow=none;dashed=1;html=1;dashPattern=1 3;strokeWidth=2;rounded=0;exitX=0.5;exitY=1;exitDx=0;exitDy=0;entryX=0;entryY=0.5;entryDx=0;entryDy=0;fontSize=12;" parent="77e6c97f196da883-5" source="QPGYUxcQ977ERs3qzV96-24" target="QPGYUxcQ977ERs3qzV96-25" edge="1">
          <mxGeometry width="50" height="50" relative="1" as="geometry">
            <mxPoint x="110" y="138" as="sourcePoint" />
            <mxPoint x="140" y="343" as="targetPoint" />
            <Array as="points">
              <mxPoint x="260" y="330" />
            </Array>
          </mxGeometry>
        </mxCell>
        <mxCell id="QPGYUxcQ977ERs3qzV96-4" value="WH" style="swimlane;html=1;startSize=20;" parent="77e6c97f196da883-1" vertex="1">
          <mxGeometry x="1380" y="20" width="258" height="470" as="geometry" />
        </mxCell>
        <mxCell id="QPGYUxcQ977ERs3qzV96-28" value="Material receive" style="rounded=1;whiteSpace=wrap;html=1;shadow=0;labelBackgroundColor=none;strokeWidth=1;fontFamily=Verdana;fontSize=12;align=center;" parent="QPGYUxcQ977ERs3qzV96-4" vertex="1">
          <mxGeometry x="38" y="65" width="100" height="60" as="geometry" />
        </mxCell>
        <mxCell id="QPGYUxcQ977ERs3qzV96-30" value="Repack status :Complete WO" style="shape=document;whiteSpace=wrap;html=1;boundedLbl=1;fontSize=12;" parent="QPGYUxcQ977ERs3qzV96-4" vertex="1">
          <mxGeometry x="111" y="305" width="108" height="60" as="geometry" />
        </mxCell>
        <mxCell id="QPGYUxcQ977ERs3qzV96-31" value="" style="endArrow=none;dashed=1;html=1;dashPattern=1 3;strokeWidth=2;rounded=0;exitX=0.5;exitY=1;exitDx=0;exitDy=0;entryX=0;entryY=0.5;entryDx=0;entryDy=0;fontSize=12;" parent="QPGYUxcQ977ERs3qzV96-4" target="QPGYUxcQ977ERs3qzV96-30" edge="1">
          <mxGeometry width="50" height="50" relative="1" as="geometry">
            <mxPoint x="93" y="125" as="sourcePoint" />
            <mxPoint x="-29" y="343" as="targetPoint" />
            <Array as="points">
              <mxPoint x="91" y="330" />
            </Array>
          </mxGeometry>
        </mxCell>
        <mxCell id="QPGYUxcQ977ERs3qzV96-2" value="material transfer" style="edgeStyle=orthogonalEdgeStyle;rounded=0;orthogonalLoop=1;jettySize=auto;html=1;fontSize=12;" parent="77e6c97f196da883-1" source="77e6c97f196da883-11" target="QPGYUxcQ977ERs3qzV96-1" edge="1">
          <mxGeometry relative="1" as="geometry" />
        </mxCell>
        <mxCell id="QPGYUxcQ977ERs3qzV96-21" value="" style="edgeStyle=orthogonalEdgeStyle;rounded=0;orthogonalLoop=1;jettySize=auto;html=1;fontSize=12;" parent="77e6c97f196da883-1" source="QPGYUxcQ977ERs3qzV96-16" target="QPGYUxcQ977ERs3qzV96-20" edge="1">
          <mxGeometry relative="1" as="geometry" />
        </mxCell>
        <mxCell id="QPGYUxcQ977ERs3qzV96-29" value="" style="edgeStyle=orthogonalEdgeStyle;rounded=0;orthogonalLoop=1;jettySize=auto;html=1;fontSize=12;" parent="77e6c97f196da883-1" source="QPGYUxcQ977ERs3qzV96-24" target="QPGYUxcQ977ERs3qzV96-28" edge="1">
          <mxGeometry relative="1" as="geometry" />
        </mxCell>
      </root>
    </mxGraphModel>
  </diagram>
</mxfile>
